<?xml version="1.0" standalone="no"?>
<!DOCTYPE svg PUBLIC "-//W3C//DTD SVG 20010904//EN"
 "http://www.w3.org/TR/2001/REC-SVG-20010904/DTD/svg10.dtd">
<svg version="1.0" xmlns="http://www.w3.org/2000/svg"
 width="512.000000pt" height="512.000000pt" viewBox="0 0 512.000000 512.000000"
 preserveAspectRatio="xMidYMid meet">
<metadata>
Created by potrace 1.11, written by Peter Selinger 2001-2013
</metadata>
<g transform="translate(0.000000,512.000000) scale(0.100000,-0.100000)"
fill="#000000" stroke="none">
<path d="M2136 4276 c-110 -163 -339 -405 -541 -574 -235 -196 -582 -396 -940
-542 -44 -18 -81 -34 -83 -35 -2 -2 28 -47 66 -101 39 -55 98 -149 132 -211
l61 -111 55 24 c83 36 162 78 268 139 53 30 100 55 106 55 6 0 10 -51 10 -136
l0 -137 83 7 c45 3 259 9 475 13 l392 6 0 -232 0 -233 -477 5 c-263 4 -495 9
-515 13 l-38 6 0 -222 0 -223 83 7 c45 3 277 9 515 13 l432 6 0 -278 0 -277
-682 6 c-376 3 -713 9 -750 14 l-68 7 0 -233 0 -234 28 6 c93 20 455 26 1722
26 1268 0 1629 -6 1723 -26 l27 -6 -2 234 c-2 173 -6 232 -15 231 -64 -13
-502 -23 -965 -23 l-568 0 0 277 0 276 468 -6 c257 -4 502 -10 545 -14 l77 -6
0 223 0 222 -37 -6 c-21 -4 -266 -9 -545 -12 l-508 -6 0 232 0 233 408 -6
c224 -4 446 -10 495 -13 l87 -7 0 142 c0 77 2 141 5 141 2 0 60 -31 127 -69
138 -77 323 -171 336 -171 5 0 17 21 27 48 26 69 100 205 166 304 33 48 59 91
59 96 0 5 -35 22 -77 37 -452 163 -940 467 -1265 787 -103 102 -213 228 -297
341 l-43 57 -252 0 -252 0 -58 -84z m420 -418 c117 -146 362 -393 494 -500 52
-42 162 -124 243 -182 l149 -106 -973 0 c-535 0 -969 4 -963 8 5 5 72 53 148
107 285 201 552 453 716 678 47 64 86 116 86 116 1 1 46 -54 100 -121z"/>
</g>
</svg>
